<svg viewBox="0 0 64 64" xmlns="http://www.w3.org/2000/svg"><defs></defs><title/><g data-name="Layer 2" id="Layer_2"><path fill= "white" class="cls-1" d="M14.34,40H49.67A10.22,10.22,0,0,0,60,30.76a10,10,0,0,0-6.62-10.17,7.41,7.41,0,0,0-1.29-5.41l-.08-.1a7.55,7.55,0,0,0-.52-.63l-.1-.12a7.54,7.54,0,0,0-1.42-1.17l-.18-.11a7.47,7.47,0,0,0-.69-.36l-.14-.07a7.44,7.44,0,0,0-.86-.31l-.2-.05q-.35-.09-.72-.15l-.26,0a7.22,7.22,0,0,0-3,.23h0a7.52,7.52,0,0,0-4,2.86,2,2,0,1,1-3.24-2.33A11.61,11.61,0,0,1,39.46,10a1.45,1.45,0,0,0,0-2.37A18,18,0,0,0,10.76,20.55,10,10,0,0,0,4,30.71,10.23,10.23,0,0,0,14.34,40Z"/><circle fill="white" class="cls-1" cx="11.78" cy="46.53" r="1.8"/><circle fill="white" class="cls-1" cx="18.56" cy="50.95" r="0.96"/><circle fill="white" class="cls-1" cx="23.3" cy="44.64" r="2.2"/><circle fill="white" class="cls-1" cx="28.65" cy="52.62" r="1.38"/><circle fill="white" class="cls-1" cx="9.52" cy="56.28" r="1.54"/><circle fill="white" class="cls-1" cx="19.33" cy="56.31" r="0.77"/><circle fill="white" class="cls-1" cx="37.78" cy="46.53" r="1.8"/><circle fill="white" class="cls-1" cx="44.56" cy="50.95" r="0.96"/><circle fill="white" class="cls-1" cx="49.3" cy="44.64" r="2.2"/><circle fill="white" class="cls-1" cx="35.52" cy="56.28" r="1.54"/><circle fill="white" class="cls-1" cx="45.33" cy="56.31" r="0.77"/></g></svg>